# xmcd
#
# Track frame offsets:
#	150
#	12817
#	25719
#	37845
#	53520
#	67970
#	82087
#	97864
#	118987
#	131972
#	160976
#	177522
#	190970
#	209357
#	221903
#	239341
#	257115
#	272021
#	286276
#	298973
#	325518
#
# Disc length: 4600 seconds
#
# Revision: 0
# Processed by: cddbd v1.5.2PL0 Copyright (c) Steve Scherf et al.
# Submitted via: EZCDAudioConverter 2.1.7.1
#
DISCID=3911f615
DTITLE=Terry Hall - The Best Of 1981-1997 1/2
DYEAR=1900
DGENRE=
TTITLE0=Fun Boy Three with Bananarama - It Ain't What You Do It's The Way That
TTITLE0=You Do It
TTITLE1=Fun Boy Three - Our Lips Are Sealed
TTITLE2=Bananarama with Fun Boy Three - Really Saying Something
TTITLE3=The Colourfield - Thinking Of You
TTITLE4=Fun Boy Three - The Lunatics (Have Taken Over The Asylum)
TTITLE5=Fun Boy Three - The Tunnel Of Love
TTITLE6=Fun Boy Three - The Telephone Always Rings
TTITLE7=Terry, Blair and Anouchka - Missing
TTITLE8=The Colourfield - The Colourfield
TTITLE9=Fun Boy Three - Summertime [Extended 12'' Mix]
TTITLE10=Fun Boy Three - The More I See (The Less I Believe)
TTITLE11=The Colourfield - The Windmills Of Your Mind
TTITLE12=Terry, Blair and Anouchka - Ultra Modern Nursery Rhyme
TTITLE13=Fun Boy Three - The Farmyard Connection
TTITLE14=The Colourfield - Running Away
TTITLE15=The Colourfield - Your Love Was Smashing
TTITLE16=Fun Boy Three - Life In General (Lewe In Algemeen)
TTITLE17=Vegas - She
TTITLE18=Fun Boy Three - Faith, Hope And Charity
TTITLE19=The Colourfield - My Wild Flame [Extended Version]
TTITLE20=The Colourfield - Faint Hearts
EXTD=
EXTT0=
EXTT1=
EXTT2=
EXTT3=
EXTT4=
EXTT5=
EXTT6=
EXTT7=
EXTT8=
EXTT9=
EXTT10=
EXTT11=
EXTT12=
EXTT13=
EXTT14=
EXTT15=
EXTT16=
EXTT17=
EXTT18=
EXTT19=
EXTT20=
PLAYORDER=
